<?xml version="1.0" encoding="UTF-8" standalone="no"?>
<!-- Created with Inkscape (http://www.inkscape.org/) -->

<svg
   width="41.570847mm"
   height="39.975258mm"
   viewBox="0 0 41.570847 39.975258"
   version="1.1"
   id="svg1"
   xml:space="preserve"
   inkscape:version="1.3.1 (9b9bdc1480, 2023-11-25, custom)"
   sodipodi:docname="energy.svg"
   xmlns:inkscape="http://www.inkscape.org/namespaces/inkscape"
   xmlns:sodipodi="http://sodipodi.sourceforge.net/DTD/sodipodi-0.dtd"
   xmlns="http://www.w3.org/2000/svg"
   xmlns:svg="http://www.w3.org/2000/svg"><sodipodi:namedview
     id="namedview1"
     pagecolor="#ffffff"
     bordercolor="#000000"
     borderopacity="0.25"
     inkscape:showpageshadow="2"
     inkscape:pageopacity="0.0"
     inkscape:pagecheckerboard="0"
     inkscape:deskcolor="#d1d1d1"
     inkscape:document-units="mm"
     inkscape:zoom="7.9999999"
     inkscape:cx="76.625001"
     inkscape:cy="50.125"
     inkscape:window-width="1850"
     inkscape:window-height="1016"
     inkscape:window-x="0"
     inkscape:window-y="0"
     inkscape:window-maximized="1"
     inkscape:current-layer="layer1"
     showguides="true"><sodipodi:guide
       position="54.419045,-9.1726239"
       orientation="0,-1"
       id="guide3"
       inkscape:locked="false" /><sodipodi:guide
       position="-33.654127,-21.971844"
       orientation="1,0"
       id="guide4"
       inkscape:locked="false" /><sodipodi:guide
       position="-29.48694,-25.179924"
       orientation="1,0"
       id="guide5"
       inkscape:locked="false" /><sodipodi:guide
       position="-31.918726,-37.383823"
       orientation="0,-1"
       id="guide6"
       inkscape:locked="false" /><sodipodi:guide
       position="-31.339023,-40.195023"
       orientation="0,-1"
       id="guide7"
       inkscape:locked="false" /><sodipodi:guide
       position="-30.975221,-40.988773"
       orientation="0,-1"
       id="guide8"
       inkscape:locked="false" /><sodipodi:guide
       position="-31.603607,-42.212473"
       orientation="0,-1"
       id="guide9"
       inkscape:locked="false" /></sodipodi:namedview><defs
     id="defs1" /><g
     inkscape:label="Layer 1"
     inkscape:groupmode="layer"
     id="layer1"
     transform="translate(-82.502823,-33.922541)"><g
       id="g3"
       transform="translate(-33.817739,-9.1593058)"
       style="fill:#d35e35;fill-opacity:1"><path
         style="fill:#d35e35;fill-opacity:1"
         d="m 124.73492,82.318298 c -1.3018,-1.17609 -3.73105,-4.168262 -5.06795,-6.923582 -2.32786,-4.79768 -3.51576,-9.411427 -3.3269,-14.430217 0.12888,-3.42487 1.12285,-5.12683 2.15722,-5.435506 0.62015,-0.185065 1.62186,-0.08117 1.99388,0.661885 0.34043,0.608997 0.4176,0.272825 0.8375,0.272825 1.04497,0 1.86501,0.659873 2.14578,2.356153 0.13051,0.78845 0.3864,2.2928 0.56114,3.35573 0.22788,1.38612 0.31125,1.990165 0.86933,2.213588 0.69469,0.278112 1.29082,1.196113 1.97445,2.413863 0.78857,1.40469 1.63407,2.861432 2.47745,3.328511 4.31657,2.390574 5.51539,6.599289 4.54068,8.420549 -0.44946,0.83983 -1.271,0.404356 -1.18311,-0.858634 0.11378,-1.63493 -0.77065,-4.728266 -4.34945,-6.42788 -0.92703,-0.440258 -1.91972,-2.316756 -3.06081,-4.568596 -0.59989,-1.18384 -1.12789,-1.502034 -1.80543,-1.502034 -1.72461,0.08434 -1.1904,1.468094 -0.83595,2.574979 0.21642,0.72876 1.029,2.29307 1.84348,3.6441 1.11799,1.8545 1.07764,2.646431 0.84592,2.873221 -0.41869,0.4098 -1.21536,-0.61535 -2.72336,-3.50442 -1.41807,-2.71679 -2.854,-6.420487 -2.98561,-11.176826 -0.025,-0.903395 0.14166,-1.617486 0.0456,-2.048738 -0.20177,-0.90573 -0.78684,-0.792342 -1.29703,-0.168382 -1.10885,1.356119 -0.79502,7.227866 0.5078,11.734826 0.80331,2.77896 2.4925,6.415003 4.14668,8.92589 0.94927,1.440903 2.18509,2.673795 2.92781,3.256022 0.25409,0.199185 0.39313,0.30666 0.55791,0.351372 0.16478,0.04471 0.14029,0.444826 0.14029,0.735866 0,0.79073 -0.74062,0.995139 -1.90077,-0.05299 z m -1.62418,-18.384586 c 0.13618,-0.13618 -0.66744,-5.202135 -1.03376,-5.801736 -0.2197,-0.359597 -0.50418,-0.544179 -0.85715,-0.504326 -0.23787,0.02686 -0.46613,0.526757 -0.46139,1.543997 0.005,1.10108 0.40951,3.231184 0.72139,4.718824 0.13782,0.65745 -0.0111,0.592956 0.74505,0.203806 0.47579,-0.244867 0.82844,-0.103145 0.88586,-0.160565 z m 13.39005,8.756844 c 6.5e-4,-0.3381 0.21404,-3.260143 0.49851,-6.375883 0.28449,-3.11573 0.77476,-5.953229 0.56835,-5.911437 -0.28027,0.05675 -2.56642,0.517266 -5.11138,1.01076 -2.18316,0.423339 -4.39381,0.918367 -4.80015,0.750749 -0.47435,-0.195672 1.32022,-4.776288 3.30444,-9.44902 1.76963,-4.167383 3.26018,-7.50199 4.04533,-9.036602 0.50761,-0.992144 0.7217,-0.913437 0.61771,1.509822 -0.0441,1.028307 -0.12611,2.555193 -0.27651,4.434458 -0.29102,3.636206 -0.57756,6.179554 -0.50665,6.250469 0.0709,0.07091 1.23897,-0.253439 5.63343,-1.224339 4.39446,-0.9709 5.20249,-1.215874 5.41879,-0.983767 0.21631,0.232107 -1.06449,3.633924 -4.08251,10.296587 -3.01802,6.662663 -4.77751,9.954582 -5.09685,10.016082 -0.32346,0.0623 -0.21336,-0.849409 -0.21256,-1.287879 z m 4.44645,-10.112373 c 1.35591,-3.130222 2.58511,-6.012679 3.05498,-7.067645 0.22888,-0.513887 0.212,-0.441548 -0.30586,-0.332468 -0.8287,0.174554 -2.70972,0.636199 -4.98914,1.151657 -2.27942,0.515458 -2.97221,0.665984 -4.19402,0.889992 -1.2218,0.224008 -1.37533,0.415272 -1.3163,-0.358249 0.059,-0.773521 0.49039,-4.307183 0.93643,-7.65487 0.0532,-0.399156 0.15385,-0.926257 -0.4733,0.636069 -0.35926,0.894976 -0.96729,2.228389 -1.21436,2.823958 -0.43136,1.039818 -3.1282,7.698086 -2.96602,7.860256 0.12051,0.12052 8.76396,-1.762759 9.38121,-1.884088 0.61725,-0.121328 0.513,-0.197002 0.11752,2.724742 -0.57771,4.26797 -0.747,5.759244 -0.74644,6.520678 3.1e-4,0.421948 1.81741,-3.237184 2.7153,-5.310032 z"
         id="path2"
         sodipodi:nodetypes="cssscssssssssssscssssssssszsccssscsssssssssssszzzzsssssszzzssszzsss" /><path
         d="m 149.47705,82.262357 c 1.3018,-1.17609 3.73105,-4.168259 5.06795,-6.923579 2.32786,-4.79768 3.51576,-9.411427 3.3269,-14.430217 -0.12888,-3.42487 -1.12285,-5.12683 -2.15722,-5.435506 -0.62015,-0.185065 -1.62186,-0.08117 -1.99388,0.661885 -0.34043,0.608997 -0.4176,0.272825 -0.8375,0.272825 -1.04497,0 -1.86501,0.659873 -2.14578,2.356153 -0.13051,0.78845 -0.3864,2.2928 -0.56114,3.35573 -0.22788,1.38612 -0.31125,1.990165 -0.86933,2.213588 -0.69469,0.278112 -1.29082,1.196113 -1.97445,2.413863 -0.78857,1.40469 -1.63407,2.861432 -2.47745,3.328511 -4.31657,2.390574 -5.51539,6.599289 -4.54068,8.420549 0.44946,0.83983 1.271,0.404356 1.18311,-0.858634 -0.11378,-1.63493 0.77065,-4.728266 4.34945,-6.42788 0.92703,-0.440258 1.91972,-2.316756 3.06081,-4.568596 0.59989,-1.18384 1.12789,-1.502034 1.80543,-1.502034 1.72461,0.08434 1.1904,1.468094 0.83595,2.574979 -0.21642,0.72876 -1.029,2.29307 -1.84348,3.6441 -1.11799,1.8545 -1.07764,2.646431 -0.84592,2.873221 0.41869,0.4098 1.21536,-0.61535 2.72336,-3.50442 1.41807,-2.71679 2.854,-6.420487 2.98561,-11.176826 0.025,-0.903395 -0.14166,-1.617486 -0.0456,-2.048738 0.20177,-0.90573 0.78684,-0.792342 1.29703,-0.168382 1.10885,1.356119 0.79502,7.227866 -0.5078,11.734826 -0.80331,2.77896 -2.4925,6.415003 -4.14668,8.92589 -0.75791,1.150435 -1.69849,2.168269 -2.42491,2.828212 -0.49468,0.449403 -0.83528,0.654358 -1.06081,0.77918 -0.22553,0.124822 -0.14029,0.44483 -0.14029,0.73587 0,0.79073 0.74062,0.99514 1.90077,-0.053 z m 1.62418,-18.384583 c -0.13618,-0.13618 0.66744,-5.202135 1.03376,-5.801736 0.2197,-0.359597 0.50418,-0.544179 0.85715,-0.504326 0.23787,0.02686 0.46613,0.526757 0.46139,1.543997 -0.005,1.10108 -0.40951,3.231184 -0.72139,4.718824 -0.13782,0.65745 0.0111,0.592956 -0.74505,0.203806 -0.47579,-0.244867 -0.82844,-0.103145 -0.88586,-0.160565 z"
         style="fill:#d35e35;fill-opacity:1"
         id="path1-6"
         sodipodi:nodetypes="cssscsscsscssssccccsscsssszsccsssccss" /></g></g></svg>
