<?xml version="1.0" encoding="UTF-8" standalone="no"?>
<!-- Created with Inkscape (http://www.inkscape.org/) -->

<svg
   width="142.02567mm"
   height="47.369957mm"
   viewBox="0 0 142.02567 47.369957"
   version="1.1"
   id="svg1"
   xml:space="preserve"
   inkscape:version="1.3.1 (9b9bdc1480, 2023-11-25, custom)"
   sodipodi:docname="icons.svg"
   xmlns:inkscape="http://www.inkscape.org/namespaces/inkscape"
   xmlns:sodipodi="http://sodipodi.sourceforge.net/DTD/sodipodi-0.dtd"
   xmlns="http://www.w3.org/2000/svg"
   xmlns:svg="http://www.w3.org/2000/svg"><sodipodi:namedview
     id="namedview1"
     pagecolor="#ffffff"
     bordercolor="#000000"
     borderopacity="0.25"
     inkscape:showpageshadow="2"
     inkscape:pageopacity="0.0"
     inkscape:pagecheckerboard="0"
     inkscape:deskcolor="#d1d1d1"
     inkscape:document-units="mm"
     inkscape:zoom="0.70710678"
     inkscape:cx="33.234019"
     inkscape:cy="282.84271"
     inkscape:window-width="1850"
     inkscape:window-height="1016"
     inkscape:window-x="0"
     inkscape:window-y="0"
     inkscape:window-maximized="1"
     inkscape:current-layer="layer1"
     showguides="true"><sodipodi:guide
       position="108.81339,248.02207"
       orientation="0,-1"
       id="guide3"
       inkscape:locked="false" /><sodipodi:guide
       position="20.740221,235.22285"
       orientation="1,0"
       id="guide4"
       inkscape:locked="false" /><sodipodi:guide
       position="24.907408,232.01477"
       orientation="1,0"
       id="guide5"
       inkscape:locked="false" /><sodipodi:guide
       position="22.475622,219.81087"
       orientation="0,-1"
       id="guide6"
       inkscape:locked="false" /><sodipodi:guide
       position="23.055325,216.99967"
       orientation="0,-1"
       id="guide7"
       inkscape:locked="false" /><sodipodi:guide
       position="23.419127,216.20592"
       orientation="0,-1"
       id="guide8"
       inkscape:locked="false" /><sodipodi:guide
       position="22.790741,214.98222"
       orientation="0,-1"
       id="guide9"
       inkscape:locked="false" /></sodipodi:namedview><defs
     id="defs1" /><g
     inkscape:label="Layer 1"
     inkscape:groupmode="layer"
     id="layer1"
     transform="translate(-28.108476,-34.035075)"><path
       style="fill:#d35e35;fill-opacity:1"
       d="m 44.333633,79.088807 c -0.08602,-0.0363 -0.226775,-0.1441 -0.312794,-0.23961 -0.141255,-0.15685 -0.158904,-0.30468 -0.182297,-1.52702 l -0.0259,-1.35336 -1.145189,-0.37525 c -0.670225,-0.21961 -1.614981,-0.61046 -2.277909,-0.94238 l -1.132719,-0.56712 -0.953924,0.9353 c -0.921646,0.90365 -0.965364,0.93529 -1.292048,0.93529 h -0.338124 l -2.679559,-2.67955 -2.679559,-2.67956 v -0.33813 c 0,-0.32668 0.03165,-0.3704 0.935299,-1.29205 l 0.935299,-0.95392 -0.577123,-1.15268 c -0.342236,-0.68355 -0.727386,-1.61323 -0.946322,-2.28426 l -0.369198,-1.13158 -1.220602,-1.2e-4 c -1.340627,-1.3e-4 -1.670699,-0.0832 -1.863496,-0.46907 -0.07384,-0.14777 -0.09796,-1.0793 -0.09884,-3.81605 -0.0013,-4.0231 -0.0053,-3.99022 0.509818,-4.20544 0.190751,-0.0797 0.606123,-0.11114 1.468464,-0.11114 h 1.202474 l 0.381235,-1.15342 c 0.219089,-0.66285 0.62237,-1.63505 0.948185,-2.28581 l 0.56695,-1.13238 -0.936074,-0.94685 c -0.910326,-0.9208 -0.936073,-0.9563 -0.936073,-1.2905 v -0.34365 l 2.679559,-2.67956 2.679559,-2.67956 h 0.338124 c 0.326738,0 0.370342,0.0316 1.294795,0.93799 l 0.956669,0.93799 1.04989,-0.52974 c 0.973813,-0.49137 2.142755,-0.95167 3.083047,-1.21404 l 0.390991,-0.10909 0.0391,-1.37839 0.0391,-1.37838 0.216822,-0.21669 0.216823,-0.21668 h 2.068702 2.068701 l 0.216823,0.21677 0.216822,0.21677 0.02166,3.90892 0.02166,3.90892 3.888256,-0.0203 3.888256,-0.0203 1.154368,-2.08312 1.154368,-2.08313 -0.157448,-0.36731 c -0.231911,-0.54102 -0.274863,-1.09539 -0.128987,-1.6648 0.516835,-2.0174 2.909731,-2.70169 4.398271,-1.25776 1.04341,1.01214 1.04341,2.71775 0,3.72988 -0.66756,0.64756 -1.59249,0.91157 -2.43246,0.69432 -0.25805,-0.0667 -0.47334,-0.11565 -0.4784,-0.10868 -0.005,0.007 -0.54646,0.99035 -1.203075,2.18529 -0.65662,1.19495 -1.281827,2.24183 -1.389349,2.3264 -0.18894,0.14862 -0.338047,0.15378 -4.446759,0.15378 h -4.251264 v 0.73387 0.73388 l 0.449641,0.054 c 0.782273,0.0939 1.888611,0.4375 2.695613,0.83722 l 0.44741,0.22161 h 4.284675 4.284678 l 1.03547,-1.03761 1.03547,-1.03761 -0.1654,-0.46771 c -0.4148,-1.17295 0.20179,-2.59053 1.37865,-3.16965 0.3299,-0.16234 0.50174,-0.1914 1.13184,-0.1914 0.6301,0 0.80194,0.0291 1.13184,0.1914 0.5225,0.25712 1.0256,0.77649 1.2768,1.3181 0.29427,0.63449 0.29427,1.5076 0,2.14209 -0.24937,0.53767 -0.74726,1.04986 -1.27562,1.31226 -0.52719,0.26182 -1.43385,0.31259 -1.99283,0.11158 l -0.39272,-0.14122 -1.23647,1.22777 c -0.68005,0.67527 -1.25157,1.23567 -1.27004,1.24534 -0.0185,0.01 -1.6469,0.036 -3.618727,0.0587 l -3.585149,0.0411 0.30672,0.35189 c 0.763607,0.87607 1.58519,2.39487 1.58519,2.93043 0,0.57821 -0.688685,0.95019 -1.15477,0.62373 -0.09515,-0.0666 -0.348162,-0.48012 -0.562259,-0.91883 -1.330559,-2.7265 -4.068655,-4.35226 -7.033433,-4.17614 -3.047173,0.18101 -5.633598,2.2572 -6.546739,5.25523 -0.196582,0.64543 -0.214358,0.81079 -0.214358,1.99406 0,1.17771 0.01834,1.35023 0.210166,1.97751 0.924814,3.02409 3.348017,4.99184 6.507767,5.2846 0.746824,0.0692 0.865447,0.10102 1.044972,0.28035 0.197883,0.19767 0.203087,0.22999 0.227569,1.41281 l 0.02505,1.21052 4.197656,4.1e-4 c 3.855854,3.8e-4 4.215667,0.0115 4.418856,0.13684 0.159845,0.0986 0.55497,0.74377 1.424515,2.32599 0.661823,1.20426 1.213284,2.21307 1.225464,2.24181 0.0122,0.0287 0.23329,-0.003 0.49135,-0.0696 0.83938,-0.21797 1.76453,0.0459 2.43246,0.69383 1.04341,1.01214 1.04341,2.71775 0,3.72989 -1.48854,1.44393 -3.88144,0.75963 -4.398275,-1.25777 -0.145785,-0.56906 -0.10294,-1.12374 0.128508,-1.66368 l 0.156968,-0.36619 -1.153362,-2.1038 -1.153361,-2.10379 h -3.888784 -3.888785 l -0.02166,3.90819 -0.02166,3.90819 -0.216686,0.21677 -0.216686,0.21678 -1.972867,0.0165 c -1.085077,0.009 -2.043246,-0.0131 -2.129264,-0.0494 z m 2.991683,-6.32041 -0.02015,-4.82842 -0.46919,-0.0579 c -1.208433,-0.14918 -2.828058,-0.80517 -3.845777,-1.55765 -2.347033,-1.73535 -3.701047,-4.36026 -3.700113,-7.17308 7.85e-4,-2.36214 0.914659,-4.54463 2.609807,-6.23267 1.37525,-1.36949 2.924939,-2.17388 4.779686,-2.48098 l 0.625587,-0.10359 0.02015,-4.82344 0.02015,-4.82344 H 46.36739 45.389314 v 1.24994 1.24994 l -0.215045,0.23756 c -0.175044,0.19337 -0.37505,0.28036 -1.075227,0.46762 -1.53329,0.41008 -2.608636,0.86185 -4.099519,1.72229 -0.976825,0.56376 -1.02378,0.55174 -2.152352,-0.55106 l -0.871319,-0.85141 -1.911322,1.91251 -1.911322,1.91252 0.835709,0.841 c 0.84507,0.85042 1.045282,1.15644 0.953474,1.45737 -0.02779,0.0911 -0.234431,0.48232 -0.459203,0.8694 -0.730519,1.25803 -1.244166,2.50816 -1.647938,4.01079 -0.317743,1.18248 -0.328907,1.1894 -1.918628,1.1894 h -1.245173 v 2.73694 2.73694 h 1.245173 c 1.565573,0 1.60666,0.0234 1.880324,1.07135 0.389823,1.49275 1.002985,2.98498 1.728682,4.20704 0.631251,1.06302 0.626508,1.08484 -0.476112,2.1906 l -0.896767,0.89932 1.934132,1.93413 1.934132,1.93413 0.899317,-0.89677 c 1.110202,-1.10705 1.121396,-1.10936 2.229696,-0.46015 1.288454,0.75474 2.652074,1.31132 4.203493,1.71574 0.503365,0.13121 0.688435,0.21932 0.840632,0.40019 0.190204,0.22605 0.195163,0.26358 0.195163,1.47712 v 1.24517 h 0.978076 0.978076 z m -11.05228,-12.9523 c -0.370941,-0.16622 -0.455588,-0.4668 -0.397734,-1.41234 0.222779,-3.64104 2.138668,-7.12973 5.059284,-9.21259 0.974695,-0.69511 2.575757,-1.50165 2.980927,-1.50165 0.419839,0 0.727359,0.30994 0.727359,0.73308 0,0.42204 -0.168752,0.58063 -1.091223,1.02553 -2.728811,1.31609 -4.680465,3.51845 -5.61344,6.33453 -0.278278,0.83995 -0.438511,1.6945 -0.518085,2.76305 -0.06107,0.82005 -0.09065,0.95004 -0.253142,1.11243 -0.233967,0.23382 -0.585874,0.296 -0.893946,0.15796 z m 25.519092,17.62476 c 0.73773,-0.44981 0.73773,-1.42781 0,-1.87761 -0.91409,-0.55733 -2.02469,0.55327 -1.46736,1.46736 0.20077,0.32928 0.59305,0.56563 0.9388,0.56563 0.15054,0 0.38838,-0.0699 0.52856,-0.15538 z m 4.34892,-28.41183 c 0.21721,-0.14233 0.44001,-0.58216 0.44001,-0.86865 0,-0.30918 -0.19733,-0.72008 -0.41396,-0.86203 -0.93005,-0.60939 -2.02105,0.15928 -1.70819,1.20351 0.20289,0.67718 1.04866,0.94224 1.68214,0.52717 z m -4.34892,-6.30824 c 0.5331,-0.32503 0.71344,-0.97007 0.41025,-1.46735 -0.4498,-0.73773 -1.42781,-0.73773 -1.87761,0 -0.55733,0.91409 0.55327,2.02468 1.46736,1.46735 z m 2.81541,29.91309 c -0.41082,-0.15613 -0.95822,-0.5474 -1.18882,-0.84973 -0.54346,-0.71251 -0.71627,-1.66282 -0.44292,-2.43576 l 0.1654,-0.46771 -1.03548,-1.03761 -1.03547,-1.03761 h -2.761459 c -2.310099,0 -2.798793,-0.0193 -2.989855,-0.11811 -0.275522,-0.14248 -0.389427,-0.33665 -0.389427,-0.66387 0,-0.32722 0.113905,-0.5214 0.389427,-0.66388 0.191992,-0.0993 0.703434,-0.11811 3.208954,-0.11811 2.02472,0 3.03534,0.0278 3.15137,0.0866 0.0939,0.0476 0.70529,0.61687 1.35854,1.265 l 1.18775,1.17841 0.46896,-0.142 c 1.28585,-0.38932 2.64161,0.21553 3.19742,1.42648 0.29166,0.63545 0.29201,1.50961 8.5e-4,2.14395 -0.24818,0.54071 -0.7511,1.06061 -1.27466,1.3177 -0.47719,0.23432 -1.53844,0.29568 -2.01058,0.11625 z m 1.44495,-1.57921 c 0.66441,-0.33468 0.68034,-1.43531 0.0265,-1.834 -0.14146,-0.0863 -0.38609,-0.14687 -0.59275,-0.14687 -0.44153,0 -0.79248,0.20708 -0.96419,0.56893 -0.2358,0.49691 -0.10538,1.0693 0.31123,1.36595 0.36867,0.26251 0.76,0.27727 1.21916,0.046 z m -13.955704,-4.37111 c -0.26539,-0.14402 -0.373408,-0.33976 -0.373408,-0.67664 0,-0.52242 0.466488,-0.85587 0.966475,-0.69086 0.654905,0.21614 0.701082,1.08176 0.07479,1.40205 -0.225699,0.11542 -0.408982,0.10594 -0.66786,-0.0345 z m -5.143507,-1.71416 c -2.406757,-0.53736 -4.158701,-2.29852 -4.646223,-4.67066 -0.534037,-2.59846 0.762045,-5.22729 3.176722,-6.4433 0.720992,-0.36308 1.612612,-0.59399 2.342893,-0.60676 0.560755,-0.01 0.624605,0.006 0.815688,0.19646 0.312402,0.31206 0.305437,0.79113 -0.01567,1.07805 -0.200784,0.1794 -0.337178,0.22281 -0.831284,0.26457 -1.496925,0.12654 -2.843887,1.00679 -3.525528,2.30395 -0.400684,0.7625 -0.548973,1.45307 -0.499044,2.32401 0.18263,3.18564 3.563639,5.07616 6.406533,3.58226 1.296352,-0.68121 2.176644,-2.02855 2.303149,-3.52511 0.04177,-0.4941 0.08518,-0.6305 0.264579,-0.83128 0.286911,-0.32111 0.765983,-0.32807 1.078049,-0.0157 0.190878,0.19108 0.206256,0.25493 0.196455,0.81568 -0.04259,2.4367 -1.922291,4.78037 -4.368473,5.44678 -0.663194,0.18067 -2.063225,0.22271 -2.697843,0.081 z m 17.705601,-3.30634 c -0.71978,-0.25742 -1.48935,-0.98772 -1.62957,-1.5464 l -0.0483,-0.19265 h -1.25362 c -1.43002,0 -1.64524,-0.06 -1.79014,-0.49906 -0.11089,-0.336 -0.0448,-0.6074 0.2052,-0.84245 0.18591,-0.17481 0.25619,-0.18457 1.50602,-0.20931 l 1.31101,-0.0259 0.14304,-0.32419 c 0.2213,-0.50159 0.75702,-1.02097 1.30977,-1.2698 1.29467,-0.58282 2.81086,-0.0329 3.42272,1.24143 0.51616,1.07501 0.32376,2.19841 -0.52311,3.05437 -0.64758,0.65453 -1.79631,0.92039 -2.65301,0.614 z m 1.58254,-1.76427 c 0.29751,-0.32463 0.37708,-0.57177 0.30604,-0.95048 -0.14624,-0.7795 -1.1005,-1.1444 -1.71949,-0.65751 -0.56125,0.44148 -0.5761,1.1906 -0.0333,1.6819 0.25704,0.23268 0.3647,0.26388 0.80411,0.23309 0.32586,-0.0228 0.42619,-0.0708 0.64269,-0.307 z m -10.443122,-0.0839 c -0.370022,-0.20509 -0.493384,-0.65566 -0.288166,-1.05251 0.281966,-0.54526 1.069899,-0.52035 1.336876,0.0423 0.164917,0.34754 0.0922,0.66842 -0.208884,0.92177 -0.257967,0.21706 -0.551952,0.24803 -0.839826,0.0885 z"
       id="path1" /><path
       style="fill:#d35e35;fill-opacity:1"
       d="m 150.60529,80.795419 c -4.87837,-2.59386 -10.88398,-8.201229 -13.34546,-11.99847 -1.1634,-1.794733 -2.01436,-4.429429 -2.50687,-7.203887 -0.33634,-1.894712 -0.37921,-5.248324 -0.30568,-8.511578 0.12788,-5.675511 0.8763,-11.707101 1.73153,-12.804531 0.73896,-0.948224 5.94367,-2.211808 8.69066,-2.602546 2.74698,-0.390737 3.23736,-0.703166 3.16303,1.598303 -0.0802,2.484492 -0.39465,2.872959 -5.63624,3.796235 -2.1447,0.37779 -2.15461,0.523983 -2.3861,2.508223 -0.96384,10.127315 -0.47069,15.956073 1.02081,19.648628 0.72873,1.804139 4.23132,5.198057 8.21255,8.381157 3.87494,3.09812 3.18999,2.860346 5.49576,1.180236 5.17479,-3.77062 8.2052,-7.08677 9.28607,-9.90136 1.19463,-3.11082 1.407,-8.05393 0.65258,-17.117046 -0.28035,-3.36789 -0.28669,-3.960456 -1.48361,-4.391172 -0.54297,-0.195392 -2.13306,-0.689984 -3.79037,-1.099667 -1.55842,-0.385237 -4.03383,-0.770725 -4.40395,-0.574704 -0.45121,0.238967 -0.24302,1.089244 -0.25511,1.735917 -0.0186,0.996725 -0.0341,3.134094 -0.0393,4.330412 -0.003,0.643665 0.54862,0.921153 0.80975,1.000683 0.7402,0.225436 1.59941,1.048103 2.06774,1.887697 0.43239,0.77515 0.52027,1.84105 0.65869,3.03362 0.15754,1.35745 0.10628,1.8094 0.81795,2.37872 1.41759,0.40135 1.93366,1.949681 1.03257,3.36129 -0.23027,0.36073 -0.6363,0.625033 -1.24903,0.76861 -1.10835,0.259711 -1.23347,0.0236 -1.27068,3.43363 0.0137,1.49212 -0.44655,2.33504 -1.82428,2.31315 -2.07372,-0.0329 -2.07215,-1.14353 -2.07215,-2.91408 0,-0.67019 0.0665,-1.3304 -0.0324,-1.72258 -0.12108,-0.48002 -0.59848,-0.34738 -1.15818,-0.34738 -0.46228,0 -1.0954,-0.11014 -1.19101,0.24856 -0.0968,0.36325 -0.12025,0.75926 -0.10985,1.47123 0.0343,2.34659 -0.18455,3.25048 -2.08366,3.25253 -2.01395,0.002 -2.01922,-1.42123 -2.0411,-3.37853 -0.005,-1.01957 0.0219,-2.062296 -1.08214,-2.38109 -0.92619,-0.267434 -1.53624,-0.858541 -1.54544,-2.145081 -0.007,-0.96062 0.85624,-1.715334 1.65097,-2.171889 0.57626,-0.331049 0.66008,-1.002195 0.66008,-1.842835 0,-1.01911 0.0937,-2.789367 0.62163,-3.708667 0.4836,-0.842176 1.57555,-1.378643 2.19441,-1.575059 0.83935,-0.266398 0.64744,-1.06021 0.64744,-5.20141 0,-2.15162 -0.13077,-3.666384 0.0819,-4.637214 0.37116,-1.694465 2.12433,-1.956753 4.7657,-1.752893 5.57511,0.43028 9.71622,1.495232 11.7205,2.329532 1.74937,0.7282 2.6651,3.596387 3.22105,11.923096 0.47445,7.106146 -0.32766,13.759122 -1.58202,16.039506 -2.20306,4.005096 -5.44279,7.518215 -10.97993,11.490934 -3.75637,2.695073 -4.76517,2.97664 -6.8223,1.88285 z m 4.39385,-2.03533 c 5.12523,-2.97473 11.31319,-9.4317 12.561,-13.10704 0.58531,-1.72397 1.19277,-6.8121 1.1952,-10.01104 0.002,-3.2731 -0.61004,-9.320004 -1.22445,-12.087764 -0.35565,-1.60215 -0.56908,-2.03514 -1.25463,-2.54528 -0.92961,-0.69176 -5.59475,-1.815228 -7.9925,-2.091663 -4.87718,-0.562288 -6.32318,-0.641108 -6.62562,0.586052 -0.0358,0.145516 -0.0981,2.488696 -0.0567,4.598034 0.0554,2.815438 -0.19659,4.550149 0.28236,4.379241 l -0.0194,9.03e-4 1.00039,-0.0065 c 0.4952,-0.005 0.40088,-0.705399 0.40586,-4.317809 0.002,-1.61539 -0.20526,-2.997169 0.099,-3.600943 0.63353,-1.257149 7.05648,0.301817 10.68268,1.497037 1.09039,0.35939 1.30557,0.571121 1.57379,1.349211 0.51303,1.4883 1.02105,9.415441 1.01767,13.773591 -0.004,5.75475 -0.67171,8.11018 -3.32566,11.74015 -2.34623,3.1298 -5.46261,5.416251 -8.55703,7.71526 -0.93121,0.69556 -1.86483,1.26465 -2.07471,1.26465 -1.0558,0 -8.15943,-5.98675 -11.05628,-9.31794 -2.83317,-3.25797 -3.56445,-6.08144 -3.56445,-13.7624 0,-4.69635 0.66826,-11.378204 1.10123,-11.958328 0.47137,-0.631568 1.46064,-0.723582 3.09613,-1.092006 2.05166,-0.462173 3.38542,-0.600154 3.99815,-0.883856 0.57888,-0.268034 0.49165,-0.684265 0.50816,-1.022717 0.0501,-1.026242 0.30081,-1.438027 -2.89802,-0.740555 -1.83713,0.40057 -4.55819,1.068518 -5.77684,1.720718 -0.30737,0.1645 -0.92715,0.368863 -1.15299,1.413384 -0.3691,1.707021 -0.99249,7.296266 -0.99244,12.41551 8e-5,8.4088 1.15365,12.17848 5.1283,16.75849 1.90459,2.19467 7.33228,6.44766 10.12056,7.93021 1.32342,0.70367 1.64868,0.65261 3.80109,-0.59668 z m -5.04338,-14.84855 c 0.0129,-1.01745 -0.009,-2.42793 -0.004,-2.80331 0.005,-0.37538 -1.65389,-0.32849 -1.64607,0.0139 0.008,0.34238 0.0119,1.68589 0.0323,2.78653 0.0205,1.10064 1.60509,1.02033 1.61803,0.003 z m 6.4755,-0.009 c 0.0171,-1.09114 0.0502,-2.54408 0.0426,-2.7808 -0.008,-0.23672 -1.59341,-0.2433 -1.59468,-0.007 -0.003,0.5288 0.003,1.62078 -0.007,2.80291 -0.01,1.0846 1.54202,1.07602 1.55908,-0.0151 z m 2.15284,-5.06172 c 0.48894,-0.14262 0.58239,-0.93423 0.0772,-1.32637 -0.31644,-0.24561 -1.15064,-0.711601 -6.28675,-0.860651 -3.53342,-0.10254 -5.06716,0.183673 -5.97615,0.627745 -0.90898,0.444072 -0.60077,1.453895 0.1095,1.617805 0.67167,0.15501 0.92069,0.162749 6.38791,0.242699 2.82896,0.0414 5.30709,-0.02175 5.69009,-0.301748 z m -1.78335,-4.47991 c 0.0208,-1.87001 -0.19635,-3.59923 -2.26793,-4.18975 -0.60246,-0.17174 -2.81615,-0.433984 -4.14427,-0.0621 -1.78605,0.50007 -2.23783,0.97325 -2.21764,3.59162 l 0.0119,1.544 c 0,0 2.91454,-0.21199 4.33465,-0.18453 1.42011,0.0275 4.27118,0.38989 4.27118,0.38989 z"
       id="path3"
       sodipodi:nodetypes="csssszzscsssssssssssssssscssssssscssssssssssssscccscssscsccccssscssssssssssssssscczzzzzzssszssssszcssssczcsscs" /><g
       id="g3"
       transform="translate(-33.817739,-9.1593058)"
       style="fill:#d35e35;fill-opacity:1"><path
         style="fill:#d35e35;fill-opacity:1"
         d="m 124.73492,82.318298 c -1.3018,-1.17609 -3.73105,-4.168262 -5.06795,-6.923582 -2.32786,-4.79768 -3.51576,-9.411427 -3.3269,-14.430217 0.12888,-3.42487 1.12285,-5.12683 2.15722,-5.435506 0.62015,-0.185065 1.62186,-0.08117 1.99388,0.661885 0.34043,0.608997 0.4176,0.272825 0.8375,0.272825 1.04497,0 1.86501,0.659873 2.14578,2.356153 0.13051,0.78845 0.3864,2.2928 0.56114,3.35573 0.22788,1.38612 0.31125,1.990165 0.86933,2.213588 0.69469,0.278112 1.29082,1.196113 1.97445,2.413863 0.78857,1.40469 1.63407,2.861432 2.47745,3.328511 4.31657,2.390574 5.51539,6.599289 4.54068,8.420549 -0.44946,0.83983 -1.271,0.404356 -1.18311,-0.858634 0.11378,-1.63493 -0.77065,-4.728266 -4.34945,-6.42788 -0.92703,-0.440258 -1.91972,-2.316756 -3.06081,-4.568596 -0.59989,-1.18384 -1.12789,-1.502034 -1.80543,-1.502034 -1.72461,0.08434 -1.1904,1.468094 -0.83595,2.574979 0.21642,0.72876 1.029,2.29307 1.84348,3.6441 1.11799,1.8545 1.07764,2.646431 0.84592,2.873221 -0.41869,0.4098 -1.21536,-0.61535 -2.72336,-3.50442 -1.41807,-2.71679 -2.854,-6.420487 -2.98561,-11.176826 -0.025,-0.903395 0.14166,-1.617486 0.0456,-2.048738 -0.20177,-0.90573 -0.78684,-0.792342 -1.29703,-0.168382 -1.10885,1.356119 -0.79502,7.227866 0.5078,11.734826 0.80331,2.77896 2.4925,6.415 4.14668,8.92589 1.27403,1.93385 3.0642,3.493017 3.48572,3.607394 0.22211,0.06027 0.14029,0.444826 0.14029,0.735866 0,0.79073 -0.74062,0.995139 -1.90077,-0.05299 z m -1.62418,-18.384586 c 0.13618,-0.13618 -0.66744,-5.202135 -1.03376,-5.801736 -0.2197,-0.359597 -0.50418,-0.544179 -0.85715,-0.504326 -0.23787,0.02686 -0.46613,0.526757 -0.46139,1.543997 0.005,1.10108 0.40951,3.231184 0.72139,4.718824 0.13782,0.65745 -0.0111,0.592956 0.74505,0.203806 0.47579,-0.244867 0.82844,-0.103145 0.88586,-0.160565 z m 13.61669,8.622831 c 6.5e-4,-0.3381 -0.2094,-2.988371 0.0751,-6.104111 0.28449,-3.11573 0.46319,-5.68524 0.40042,-5.78681 -0.0938,-0.15179 -7.67915,1.272401 -9.27542,1.774061 -0.27867,0.0876 -0.62753,-0.102046 -0.72165,-0.347336 -0.12885,-0.33578 5.67518,-15.332281 7.80001,-18.413224 0.90122,-1.306746 1.12817,-0.194741 0.47278,6.099245 -0.36006,3.457858 -0.70914,6.024589 -0.63823,6.095504 0.0709,0.07091 2.66633,-0.581313 5.63343,-1.224339 5.27648,-1.143513 5.21291,-0.839648 5.18742,-0.200278 -0.0101,0.25466 -1.39949,4.106795 -3.75812,9.663735 -2.35864,5.55694 -4.40409,8.909423 -4.72343,8.970923 -0.32346,0.0623 -0.45317,-0.0889 -0.45231,-0.52737 z m 4.07977,-9.34597 c 3.52095,-8.1284 3.40299,-7.80692 2.86048,-7.79576 -0.25254,0.005 -2.48322,0.47141 -4.95708,1.03602 -2.47386,0.56461 -5.08367,0.954059 -5.24078,0.978233 -0.50539,0.07776 0.33985,-4.947384 0.71384,-8.303884 0.20634,-1.488413 -1.58621,3.385749 -1.65647,3.555075 -1.6592,3.916479 -3.20972,7.684456 -3.04754,7.846626 0.12051,0.12052 9.09623,-1.944276 9.2936,-1.843208 l 0.0666,0.03409 -0.34497,3.458647 c -0.0927,1.73296 -0.24613,3.98427 -0.34106,5.00291 -0.11601,1.24492 -0.0851,1.76535 0.0943,1.5875 0.14681,-0.14552 1.2984,-2.64583 2.55909,-5.55625 z"
         id="path2"
         sodipodi:nodetypes="cssscssssssssssscssssssssssccssscsssssssssszsczsssczsczssccssss" /><path
         d="m 149.47705,82.262357 c 1.3018,-1.17609 3.73105,-4.168259 5.06795,-6.923579 2.32786,-4.79768 3.51576,-9.411427 3.3269,-14.430217 -0.12888,-3.42487 -1.12285,-5.12683 -2.15722,-5.435506 -0.62015,-0.185065 -1.62186,-0.08117 -1.99388,0.661885 -0.34043,0.608997 -0.4176,0.272825 -0.8375,0.272825 -1.04497,0 -1.86501,0.659873 -2.14578,2.356153 -0.13051,0.78845 -0.3864,2.2928 -0.56114,3.35573 -0.22788,1.38612 -0.31125,1.990165 -0.86933,2.213588 -0.69469,0.278112 -1.29082,1.196113 -1.97445,2.413863 -0.78857,1.40469 -1.63407,2.861432 -2.47745,3.328511 -4.31657,2.390574 -5.51539,6.599289 -4.54068,8.420549 0.44946,0.83983 1.271,0.404356 1.18311,-0.858634 -0.11378,-1.63493 0.77065,-4.728266 4.34945,-6.42788 0.92703,-0.440258 1.91972,-2.316756 3.06081,-4.568596 0.59989,-1.18384 1.12789,-1.502034 1.80543,-1.502034 1.72461,0.08434 1.1904,1.468094 0.83595,2.574979 -0.21642,0.72876 -1.029,2.29307 -1.84348,3.6441 -1.11799,1.8545 -1.07764,2.646431 -0.84592,2.873221 0.41869,0.4098 1.21536,-0.61535 2.72336,-3.50442 1.41807,-2.71679 2.854,-6.420487 2.98561,-11.176826 0.025,-0.903395 -0.14166,-1.617486 -0.0456,-2.048738 0.20177,-0.90573 0.78684,-0.792342 1.29703,-0.168382 1.10885,1.356119 0.79502,7.227866 -0.5078,11.734826 -0.80331,2.77896 -2.4925,6.415 -4.14668,8.92589 -1.27403,1.93385 -3.0642,3.493012 -3.48572,3.607392 -0.22211,0.0603 -0.14029,0.44483 -0.14029,0.73587 0,0.79073 0.74062,0.99514 1.90077,-0.053 z m 1.62418,-18.384583 c -0.13618,-0.13618 0.66744,-5.202135 1.03376,-5.801736 0.2197,-0.359597 0.50418,-0.544179 0.85715,-0.504326 0.23787,0.02686 0.46613,0.526757 0.46139,1.543997 -0.005,1.10108 -0.40951,3.231184 -0.72139,4.718824 -0.13782,0.65745 0.0111,0.592956 -0.74505,0.203806 -0.47579,-0.244867 -0.82844,-0.103145 -0.88586,-0.160565 z"
         style="fill:#d35e35;fill-opacity:1"
         id="path1-6" /></g></g></svg>
