<?xml version="1.0" encoding="UTF-8" standalone="no"?>
<!-- Created with Inkscape (http://www.inkscape.org/) -->

<svg
   width="40.011204mm"
   height="39.992424mm"
   viewBox="0 0 40.011204 39.992424"
   version="1.1"
   id="svg1"
   xml:space="preserve"
   inkscape:version="1.3.1 (9b9bdc1480, 2023-11-25, custom)"
   sodipodi:docname="intellect.svg"
   xmlns:inkscape="http://www.inkscape.org/namespaces/inkscape"
   xmlns:sodipodi="http://sodipodi.sourceforge.net/DTD/sodipodi-0.dtd"
   xmlns="http://www.w3.org/2000/svg"
   xmlns:svg="http://www.w3.org/2000/svg"><sodipodi:namedview
     id="namedview1"
     pagecolor="#ffffff"
     bordercolor="#000000"
     borderopacity="0.25"
     inkscape:showpageshadow="2"
     inkscape:pageopacity="0.0"
     inkscape:pagecheckerboard="0"
     inkscape:deskcolor="#d1d1d1"
     inkscape:document-units="mm"
     inkscape:zoom="0.70710678"
     inkscape:cx="544.47223"
     inkscape:cy="169.70563"
     inkscape:window-width="1850"
     inkscape:window-height="1016"
     inkscape:window-x="0"
     inkscape:window-y="0"
     inkscape:window-maximized="1"
     inkscape:current-layer="layer1"
     showguides="true"><sodipodi:guide
       position="108.81339,253.13482"
       orientation="0,-1"
       id="guide3"
       inkscape:locked="false" /><sodipodi:guide
       position="20.740221,240.3356"
       orientation="1,0"
       id="guide4"
       inkscape:locked="false" /><sodipodi:guide
       position="24.907408,237.12752"
       orientation="1,0"
       id="guide5"
       inkscape:locked="false" /><sodipodi:guide
       position="22.475622,224.92362"
       orientation="0,-1"
       id="guide6"
       inkscape:locked="false" /><sodipodi:guide
       position="23.055325,222.11242"
       orientation="0,-1"
       id="guide7"
       inkscape:locked="false" /><sodipodi:guide
       position="23.419127,221.31867"
       orientation="0,-1"
       id="guide8"
       inkscape:locked="false" /><sodipodi:guide
       position="22.790741,220.09497"
       orientation="0,-1"
       id="guide9"
       inkscape:locked="false" /></sodipodi:namedview><defs
     id="defs1" /><g
     inkscape:label="Layer 1"
     inkscape:groupmode="layer"
     id="layer1"
     transform="translate(-28.108476,-39.14783)"><path
       style="fill:#d35e35;fill-opacity:1"
       d="m 44.333633,79.088807 c -0.08602,-0.0363 -0.226775,-0.1441 -0.312794,-0.23961 -0.141255,-0.15685 -0.158904,-0.30468 -0.182297,-1.52702 l -0.0259,-1.35336 -1.145189,-0.37525 c -0.670225,-0.21961 -1.614981,-0.61046 -2.277909,-0.94238 l -1.132719,-0.56712 -0.953924,0.9353 c -0.921646,0.90365 -0.965364,0.93529 -1.292048,0.93529 h -0.338124 l -2.679559,-2.67955 -2.679559,-2.67956 v -0.33813 c 0,-0.32668 0.03165,-0.3704 0.935299,-1.29205 l 0.935299,-0.95392 -0.577123,-1.15268 c -0.342236,-0.68355 -0.727386,-1.61323 -0.946322,-2.28426 l -0.369198,-1.13158 -1.220602,-1.2e-4 c -1.340627,-1.3e-4 -1.670699,-0.0832 -1.863496,-0.46907 -0.07384,-0.14777 -0.09796,-1.0793 -0.09884,-3.81605 -0.0013,-4.0231 -0.0053,-3.99022 0.509818,-4.20544 0.190751,-0.0797 0.606123,-0.11114 1.468464,-0.11114 h 1.202474 l 0.381235,-1.15342 c 0.219089,-0.66285 0.62237,-1.63505 0.948185,-2.28581 l 0.56695,-1.13238 -0.936074,-0.94685 c -0.910326,-0.9208 -0.936073,-0.9563 -0.936073,-1.2905 v -0.34365 l 2.679559,-2.67956 2.679559,-2.67956 h 0.338124 c 0.326738,0 0.370342,0.0316 1.294795,0.93799 l 0.956669,0.93799 1.04989,-0.52974 c 0.973813,-0.49137 2.142755,-0.95167 3.083047,-1.21404 l 0.390991,-0.10909 0.0391,-1.37839 0.0391,-1.37838 0.216822,-0.21669 0.216823,-0.21668 h 2.068702 2.068701 l 0.216823,0.21677 0.216822,0.21677 0.02166,3.90892 0.02166,3.90892 3.888256,-0.0203 3.888256,-0.0203 1.154368,-2.08312 1.154368,-2.08313 -0.157448,-0.36731 c -0.231911,-0.54102 -0.274863,-1.09539 -0.128987,-1.6648 0.516835,-2.0174 2.909731,-2.70169 4.398271,-1.25776 1.04341,1.01214 1.04341,2.71775 0,3.72988 -0.66756,0.64756 -1.59249,0.91157 -2.43246,0.69432 -0.25805,-0.0667 -0.47334,-0.11565 -0.4784,-0.10868 -0.005,0.007 -0.54646,0.99035 -1.203075,2.18529 -0.65662,1.19495 -1.281827,2.24183 -1.389349,2.3264 -0.18894,0.14862 -0.338047,0.15378 -4.446759,0.15378 h -4.251264 v 0.73387 0.73388 l 0.449641,0.054 c 0.782273,0.0939 1.888611,0.4375 2.695613,0.83722 l 0.44741,0.22161 h 4.284675 4.284678 l 1.03547,-1.03761 1.03547,-1.03761 -0.1654,-0.46771 c -0.4148,-1.17295 0.20179,-2.59053 1.37865,-3.16965 0.3299,-0.16234 0.50174,-0.1914 1.13184,-0.1914 0.6301,0 0.80194,0.0291 1.13184,0.1914 0.5225,0.25712 1.0256,0.77649 1.2768,1.3181 0.29427,0.63449 0.29427,1.5076 0,2.14209 -0.24937,0.53767 -0.74726,1.04986 -1.27562,1.31226 -0.52719,0.26182 -1.43385,0.31259 -1.99283,0.11158 l -0.39272,-0.14122 -1.23647,1.22777 c -0.68005,0.67527 -1.25157,1.23567 -1.27004,1.24534 -0.0185,0.01 -1.6469,0.036 -3.618727,0.0587 l -3.585149,0.0411 0.30672,0.35189 c 0.763607,0.87607 1.58519,2.39487 1.58519,2.93043 0,0.57821 -0.688685,0.95019 -1.15477,0.62373 -0.09515,-0.0666 -0.348162,-0.48012 -0.562259,-0.91883 -1.330559,-2.7265 -4.068655,-4.35226 -7.033433,-4.17614 -3.047173,0.18101 -5.633598,2.2572 -6.546739,5.25523 -0.196582,0.64543 -0.214358,0.81079 -0.214358,1.99406 0,1.17771 0.01834,1.35023 0.210166,1.97751 0.924814,3.02409 3.348017,4.99184 6.507767,5.2846 0.746824,0.0692 0.865447,0.10102 1.044972,0.28035 0.197883,0.19767 0.203087,0.22999 0.227569,1.41281 l 0.02505,1.21052 4.197656,4.1e-4 c 3.855854,3.8e-4 4.215667,0.0115 4.418856,0.13684 0.159845,0.0986 0.55497,0.74377 1.424515,2.32599 0.661823,1.20426 1.213284,2.21307 1.225464,2.24181 0.0122,0.0287 0.23329,-0.003 0.49135,-0.0696 0.83938,-0.21797 1.76453,0.0459 2.43246,0.69383 1.04341,1.01214 1.04341,2.71775 0,3.72989 -1.48854,1.44393 -3.88144,0.75963 -4.398275,-1.25777 -0.145785,-0.56906 -0.10294,-1.12374 0.128508,-1.66368 l 0.156968,-0.36619 -1.153362,-2.1038 -1.153361,-2.10379 h -3.888784 -3.888785 l -0.02166,3.90819 -0.02166,3.90819 -0.216686,0.21677 -0.216686,0.21678 -1.972867,0.0165 c -1.085077,0.009 -2.043246,-0.0131 -2.129264,-0.0494 z m 2.991683,-6.32041 -0.02015,-4.82842 -0.46919,-0.0579 c -1.208433,-0.14918 -2.828058,-0.80517 -3.845777,-1.55765 -2.347033,-1.73535 -3.701047,-4.36026 -3.700113,-7.17308 7.85e-4,-2.36214 0.914659,-4.54463 2.609807,-6.23267 1.37525,-1.36949 2.924939,-2.17388 4.779686,-2.48098 l 0.625587,-0.10359 0.02015,-4.82344 0.02015,-4.82344 H 46.36739 45.389314 v 1.24994 1.24994 l -0.215045,0.23756 c -0.175044,0.19337 -0.37505,0.28036 -1.075227,0.46762 -1.53329,0.41008 -2.608636,0.86185 -4.099519,1.72229 -0.976825,0.56376 -1.02378,0.55174 -2.152352,-0.55106 l -0.871319,-0.85141 -1.911322,1.91251 -1.911322,1.91252 0.835709,0.841 c 0.84507,0.85042 1.045282,1.15644 0.953474,1.45737 -0.02779,0.0911 -0.234431,0.48232 -0.459203,0.8694 -0.730519,1.25803 -1.244166,2.50816 -1.647938,4.01079 -0.317743,1.18248 -0.328907,1.1894 -1.918628,1.1894 h -1.245173 v 2.73694 2.73694 h 1.245173 c 1.565573,0 1.60666,0.0234 1.880324,1.07135 0.389823,1.49275 1.002985,2.98498 1.728682,4.20704 0.631251,1.06302 0.626508,1.08484 -0.476112,2.1906 l -0.896767,0.89932 1.934132,1.93413 1.934132,1.93413 0.899317,-0.89677 c 1.110202,-1.10705 1.121396,-1.10936 2.229696,-0.46015 1.288454,0.75474 2.652074,1.31132 4.203493,1.71574 0.503365,0.13121 0.688435,0.21932 0.840632,0.40019 0.190204,0.22605 0.195163,0.26358 0.195163,1.47712 v 1.24517 h 0.978076 0.978076 z m -11.05228,-12.9523 c -0.370941,-0.16622 -0.455588,-0.4668 -0.397734,-1.41234 0.222779,-3.64104 2.138668,-7.12973 5.059284,-9.21259 0.974695,-0.69511 2.575757,-1.50165 2.980927,-1.50165 0.419839,0 0.727359,0.30994 0.727359,0.73308 0,0.42204 -0.168752,0.58063 -1.091223,1.02553 -2.728811,1.31609 -4.680465,3.51845 -5.61344,6.33453 -0.278278,0.83995 -0.438511,1.6945 -0.518085,2.76305 -0.06107,0.82005 -0.09065,0.95004 -0.253142,1.11243 -0.233967,0.23382 -0.585874,0.296 -0.893946,0.15796 z m 25.519092,17.62476 c 0.73773,-0.44981 0.73773,-1.42781 0,-1.87761 -0.91409,-0.55733 -2.02469,0.55327 -1.46736,1.46736 0.20077,0.32928 0.59305,0.56563 0.9388,0.56563 0.15054,0 0.38838,-0.0699 0.52856,-0.15538 z m 4.34892,-28.41183 c 0.21721,-0.14233 0.44001,-0.58216 0.44001,-0.86865 0,-0.30918 -0.19733,-0.72008 -0.41396,-0.86203 -0.93005,-0.60939 -2.02105,0.15928 -1.70819,1.20351 0.20289,0.67718 1.04866,0.94224 1.68214,0.52717 z m -4.34892,-6.30824 c 0.5331,-0.32503 0.71344,-0.97007 0.41025,-1.46735 -0.4498,-0.73773 -1.42781,-0.73773 -1.87761,0 -0.55733,0.91409 0.55327,2.02468 1.46736,1.46735 z m 2.81541,29.91309 c -0.41082,-0.15613 -0.95822,-0.5474 -1.18882,-0.84973 -0.54346,-0.71251 -0.71627,-1.66282 -0.44292,-2.43576 l 0.1654,-0.46771 -1.03548,-1.03761 -1.03547,-1.03761 h -2.761459 c -2.310099,0 -2.798793,-0.0193 -2.989855,-0.11811 -0.275522,-0.14248 -0.389427,-0.33665 -0.389427,-0.66387 0,-0.32722 0.113905,-0.5214 0.389427,-0.66388 0.191992,-0.0993 0.703434,-0.11811 3.208954,-0.11811 2.02472,0 3.03534,0.0278 3.15137,0.0866 0.0939,0.0476 0.70529,0.61687 1.35854,1.265 l 1.18775,1.17841 0.46896,-0.142 c 1.28585,-0.38932 2.64161,0.21553 3.19742,1.42648 0.29166,0.63545 0.29201,1.50961 8.5e-4,2.14395 -0.24818,0.54071 -0.7511,1.06061 -1.27466,1.3177 -0.47719,0.23432 -1.53844,0.29568 -2.01058,0.11625 z m 1.44495,-1.57921 c 0.66441,-0.33468 0.68034,-1.43531 0.0265,-1.834 -0.14146,-0.0863 -0.38609,-0.14687 -0.59275,-0.14687 -0.44153,0 -0.79248,0.20708 -0.96419,0.56893 -0.2358,0.49691 -0.10538,1.0693 0.31123,1.36595 0.36867,0.26251 0.76,0.27727 1.21916,0.046 z m -13.955704,-4.37111 c -0.26539,-0.14402 -0.373408,-0.33976 -0.373408,-0.67664 0,-0.52242 0.466488,-0.85587 0.966475,-0.69086 0.654905,0.21614 0.701082,1.08176 0.07479,1.40205 -0.225699,0.11542 -0.408982,0.10594 -0.66786,-0.0345 z m -5.143507,-1.71416 c -2.406757,-0.53736 -4.158701,-2.29852 -4.646223,-4.67066 -0.534037,-2.59846 0.762045,-5.22729 3.176722,-6.4433 0.720992,-0.36308 1.612612,-0.59399 2.342893,-0.60676 0.560755,-0.01 0.624605,0.006 0.815688,0.19646 0.312402,0.31206 0.305437,0.79113 -0.01567,1.07805 -0.200784,0.1794 -0.337178,0.22281 -0.831284,0.26457 -1.496925,0.12654 -2.843887,1.00679 -3.525528,2.30395 -0.400684,0.7625 -0.548973,1.45307 -0.499044,2.32401 0.18263,3.18564 3.563639,5.07616 6.406533,3.58226 1.296352,-0.68121 2.176644,-2.02855 2.303149,-3.52511 0.04177,-0.4941 0.08518,-0.6305 0.264579,-0.83128 0.286911,-0.32111 0.765983,-0.32807 1.078049,-0.0157 0.190878,0.19108 0.206256,0.25493 0.196455,0.81568 -0.04259,2.4367 -1.922291,4.78037 -4.368473,5.44678 -0.663194,0.18067 -2.063225,0.22271 -2.697843,0.081 z m 17.705601,-3.30634 c -0.71978,-0.25742 -1.48935,-0.98772 -1.62957,-1.5464 l -0.0483,-0.19265 h -1.25362 c -1.43002,0 -1.64524,-0.06 -1.79014,-0.49906 -0.11089,-0.336 -0.0448,-0.6074 0.2052,-0.84245 0.18591,-0.17481 0.25619,-0.18457 1.50602,-0.20931 l 1.31101,-0.0259 0.14304,-0.32419 c 0.2213,-0.50159 0.75702,-1.02097 1.30977,-1.2698 1.29467,-0.58282 2.81086,-0.0329 3.42272,1.24143 0.51616,1.07501 0.32376,2.19841 -0.52311,3.05437 -0.64758,0.65453 -1.79631,0.92039 -2.65301,0.614 z m 1.58254,-1.76427 c 0.29751,-0.32463 0.37708,-0.57177 0.30604,-0.95048 -0.14624,-0.7795 -1.1005,-1.1444 -1.71949,-0.65751 -0.56125,0.44148 -0.5761,1.1906 -0.0333,1.6819 0.25704,0.23268 0.3647,0.26388 0.80411,0.23309 0.32586,-0.0228 0.42619,-0.0708 0.64269,-0.307 z m -10.443122,-0.0839 c -0.370022,-0.20509 -0.493384,-0.65566 -0.288166,-1.05251 0.281966,-0.54526 1.069899,-0.52035 1.336876,0.0423 0.164917,0.34754 0.0922,0.66842 -0.208884,0.92177 -0.257967,0.21706 -0.551952,0.24803 -0.839826,0.0885 z"
       id="path1" /></g></svg>
