<?xml version="1.0" encoding="UTF-8" standalone="no"?>
<!-- Created with Inkscape (http://www.inkscape.org/) -->

<svg
   width="94.407578mm"
   height="80.418503mm"
   viewBox="0 0 94.407578 80.418503"
   version="1.1"
   id="svg5"
   inkscape:version="1.1.2 (0a00cf5339, 2022-02-04)"
   sodipodi:docname="logo_lite.svg"
   xmlns:inkscape="http://www.inkscape.org/namespaces/inkscape"
   xmlns:sodipodi="http://sodipodi.sourceforge.net/DTD/sodipodi-0.dtd"
   xmlns="http://www.w3.org/2000/svg"
   xmlns:svg="http://www.w3.org/2000/svg">
  <sodipodi:namedview
     id="namedview7"
     pagecolor="#ffffff"
     bordercolor="#000000"
     borderopacity="0.25"
     inkscape:pageshadow="2"
     inkscape:pageopacity="0.0"
     inkscape:pagecheckerboard="0"
     inkscape:document-units="mm"
     showgrid="false"
     inkscape:zoom="0.50898195"
     inkscape:cx="683.71776"
     inkscape:cy="771.14719"
     inkscape:window-width="1850"
     inkscape:window-height="1016"
     inkscape:window-x="0"
     inkscape:window-y="0"
     inkscape:window-maximized="1"
     inkscape:current-layer="g968" />
  <defs
     id="defs2" />
  <g
     inkscape:label="Layer 1"
     inkscape:groupmode="layer"
     id="layer1"
     transform="translate(-17.856855,-103.87986)">
    <path
       style="fill:#000000;stroke-width:0.264583"
       id="path856"
       d="" />
    <path
       style="fill:#000000;stroke-width:0.264583"
       id="path836"
       d="" />
    <g
       id="g968"
       transform="matrix(0.26458333,0,0,0.26458333,16.214066,94.618547)">
      <path
         d="m 141.086,92.5 c -0.031,1.1 0.381,2.675 0.914,3.5 0.862,1.333 0.963,1.333 0.914,0 -0.03,-0.825 -0.441,-2.4 -0.914,-3.5 l -0.859,-2 -0.055,2 m 61.993,10.25 c 0.048,1.056 0.28,1.252 0.585,0.494 0.279,-0.691 0.988,-0.959 1.576,-0.596 0.632,0.391 0.777,0.189 0.355,-0.493 -1.078,-1.745 -2.605,-1.384 -2.516,0.595 m 75.504,119.893 c -0.346,0.904 -0.394,1.879 -0.107,2.167 0.288,0.288 0.524,0.012 0.524,-0.612 0,-0.664 0.726,-0.863 1.75,-0.479 1.532,0.574 1.579,0.446 0.378,-1.032 -1.689,-2.076 -1.764,-2.077 -2.545,-0.044 m 8.667,3.286 c 0.137,0.512 -0.517,1.524 -1.454,2.25 -1.477,1.145 -1.519,1.567 -0.316,3.171 0.763,1.018 1.867,1.554 2.453,1.191 1.351,-0.835 1.41,-7.541 0.067,-7.541 -0.55,0 -0.887,0.418 -0.75,0.929 m -12.864,7.886 c 0.344,0.558 0.061,1.221 -0.63,1.475 -0.964,0.353 -0.983,0.75 -0.081,1.71 1.5,1.595 8.647,0.432 8.032,-1.307 -0.232,-0.656 -1.255,-1.115 -2.273,-1.019 -1.018,0.095 -2.711,-0.287 -3.763,-0.85 -1.279,-0.684 -1.705,-0.687 -1.285,-0.009 M 289,240 c 0,0.55 0.423,1 0.941,1 0.518,0 1.219,-0.45 1.559,-1 0.34,-0.55 -0.084,-1 -0.941,-1 -0.857,0 -1.559,0.45 -1.559,1 m -6,3.492 c 0,0.894 -0.375,1.394 -0.833,1.111 -0.459,-0.283 -0.834,0.14 -0.834,0.941 0,0.804 0.933,1.462 2.084,1.47 1.146,0.007 3.095,0.285 4.333,0.616 4.106,1.101 1.674,-3.856 -2.5,-5.096 -1.685,-0.501 -2.25,-0.26 -2.25,0.958 M 265.5,244 c -0.34,0.55 -0.293,1.526 0.105,2.17 0.476,0.769 0.192,0.966 -0.828,0.575 -1.15,-0.442 -1.421,-0.101 -1.05,1.319 0.298,1.141 0.959,1.615 1.637,1.175 0.625,-0.407 1.811,-0.785 2.636,-0.841 0.825,-0.056 2.288,-0.169 3.25,-0.25 0.962,-0.081 1.75,-0.823 1.75,-1.648 0,-1.698 -1.566,-2.011 -2.5,-0.5 -0.77,1.246 -1.585,1.242 -3.5,-0.015 -1.333,-0.876 -1.333,-1.094 0,-1.97 0.905,-0.594 1.028,-0.99 0.309,-1 -0.655,-0.008 -1.469,0.435 -1.809,0.985 m -36.167,25.5 c 0,0.825 0.655,1.5 1.456,1.5 1.181,0 1.221,-0.283 0.211,-1.5 -0.685,-0.825 -1.34,-1.5 -1.456,-1.5 -0.116,0 -0.211,0.675 -0.211,1.5 m -68.664,0.951 c -1.763,1.336 -1.754,1.464 0.25,3.468 2.169,2.169 3.773,2.52 6.583,1.442 1.329,-0.51 1.396,-0.81 0.332,-1.485 -0.999,-0.633 -1.02,-0.849 -0.084,-0.861 0.688,-0.008 1.25,-0.465 1.25,-1.015 0,-0.55 -0.873,-1 -1.941,-1 -1.068,0 -2.219,-0.45 -2.559,-1 -0.814,-1.318 -1.622,-1.223 -3.831,0.451 M 193,274.5 c 0,0.825 0.675,1.5 1.5,1.5 0.825,0 1.5,-0.675 1.5,-1.5 0,-0.825 -0.675,-1.5 -1.5,-1.5 -0.825,0 -1.5,0.675 -1.5,1.5 m 4.543,-0.569 c -0.683,1.105 0.894,2.299 1.818,1.375 0.95,-0.951 0.773,-2.306 -0.302,-2.306 -0.518,0 -1.2,0.419 -1.516,0.931 m -20.314,1.256 c 0.498,1.495 2.771,2.318 2.771,1.003 0,-0.537 -0.713,-1.249 -1.584,-1.584 -0.973,-0.373 -1.431,-0.15 -1.187,0.581 M 248,281.845 c 0,1.226 3.446,4.155 4.888,4.155 0.676,0 1.009,0.358 0.738,0.796 -0.785,1.27 4.151,0.828 5.469,-0.491 0.926,-0.926 0.603,-1.343 -1.436,-1.855 -1.447,-0.363 -3.762,-0.725 -5.144,-0.805 -1.383,-0.08 -2.514,-0.707 -2.514,-1.395 C 250,281.563 249.55,281 249,281 c -0.55,0 -1,0.38 -1,0.845"
         stroke="none"
         fill="#e9b6a4"
         fill-rule="evenodd"
         id="path956"
         sodipodi:nodetypes="cccccccccccccscccccccsccccsccccssscccscccccccccsssccccccscsccscccsscccssscccsccscccscccscsc" />
      <path
         d="m 187,37.066 c 0,1.136 -0.424,2.858 -0.942,3.826 -1.409,2.631 0.954,8.406 4.744,11.595 4.665,3.925 5.24,5.487 4.272,11.607 -0.891,5.64 -0.049,9.593 2.451,11.502 1.23,0.939 1.24,1.654 0.071,5 -0.75,2.147 -1.817,5.704 -2.37,7.904 -0.554,2.2 -1.497,5.35 -2.096,7 -0.598,1.65 -1.354,5.163 -1.679,7.807 -0.494,4.019 -1.108,5.122 -3.747,6.727 l -3.157,1.92 -3.334,-3.227 c -2.083,-2.016 -4.113,-3.101 -5.408,-2.892 -1.14,0.185 -3.475,-0.35 -5.189,-1.188 -1.714,-0.837 -5.147,-2.3 -7.629,-3.249 -3.056,-1.169 -5.592,-3.157 -7.853,-6.156 -1.836,-2.436 -4.868,-5.068 -6.736,-5.849 C 146.529,88.612 145,87.274 145,86.419 c 0,-3.451 -12.631,-16.863 -16.872,-17.915 -1.446,-0.359 -3.528,-1.47 -4.628,-2.47 -1.706,-1.551 -2.861,-1.698 -7.856,-0.998 -3.22,0.451 -6.439,0.596 -7.153,0.322 -1.894,-0.726 -8.964,3.156 -11.41,6.267 -2.566,3.261 -1.991,4.202 1.264,2.068 1.993,-1.305 3.558,-1.414 9.089,-0.631 4.601,0.652 7.311,0.609 8.703,-0.135 1.749,-0.936 2.848,-0.299 8.192,4.746 4.213,3.978 6.555,7.096 7.381,9.827 4.121,13.62 5.113,17.991 4.209,18.55 -1.41,0.871 1.394,10.922 4.549,16.304 l 2.597,4.432 -2.783,2.075 c -1.53,1.142 -2.219,2.09 -1.532,2.107 2.011,0.051 1.536,5.004 -0.5,5.206 -4.811,0.479 -8.051,0.313 -7.616,-0.39 0.831,-1.346 -1.591,-0.859 -4.186,0.842 -2.028,1.329 -2.38,1.36 -1.924,0.171 0.723,-1.882 -6.563,-5.282 -9.611,-4.485 -1.531,0.401 -4.014,-0.658 -8.299,-3.539 -4.9,-3.295 -7.231,-4.199 -11.736,-4.553 -3.503,-0.275 -5.882,-0.023 -6.309,0.669 -0.958,1.549 -17.804,1.476 -19.363,-0.083 -0.926,-0.926 -1.655,-0.702 -3.239,1 -1.125,1.206 -3.066,2.194 -4.315,2.194 -2.735,0 -4.378,1.288 -8.062,6.318 -1.538,2.101 -3.875,4.31 -5.193,4.911 -3.273,1.491 -3.031,2.963 0.353,2.144 3.874,-0.938 6.291,-2.087 9.779,-4.649 2.636,-1.936 4.188,-2.208 12,-2.103 16.997,0.229 26.646,3.731 30.051,10.905 1.303,2.747 10.097,11.103 20.805,19.768 2.519,2.039 2.736,2.611 1.714,4.52 -0.726,1.358 -2.122,2.186 -3.682,2.186 -1.432,0 -3.567,1.137 -4.965,2.646 -1.348,1.455 -2.455,2.243 -2.459,1.75 -0.004,-0.493 -2.029,-0.988 -4.5,-1.099 -2.471,-0.112 -4.493,0.163 -4.493,0.611 0,0.448 -1.131,0.598 -2.514,0.334 -2.339,-0.447 -9.461,3.234 -9.479,4.899 -0.004,0.352 -3.015,0.685 -6.691,0.741 -7.92,0.118 -10.081,0.676 -13.01,3.355 -1.796,1.642 -2.994,1.887 -6.596,1.347 -3.401,-0.51 -4.704,-0.296 -5.733,0.944 -1.726,2.079 -6.378,4.472 -8.695,4.472 -1,0 -3.473,1.125 -5.497,2.5 -2.023,1.375 -4.948,2.5 -6.5,2.5 -1.551,0 -4.442,1.102 -6.424,2.449 -1.982,1.346 -4.899,2.738 -6.482,3.093 -5.619,1.257 -6.379,1.608 -6.379,2.944 0,1.472 -5.888,5.494 -8.118,5.546 -0.76,0.017 -2.282,0.747 -3.382,1.622 -1.914,1.521 -1.86,1.564 1.25,0.993 1.787,-0.328 5.319,-1.539 7.847,-2.691 9.886121,-2.79596 8.320504,-3.38764 13.403,-6.681 8.479637,-2.05568 13.261682,-1.93917 22.479,-5.864 2.258,-0.977 3.154,-1.005 3.703,-0.116 0.422,0.682 4.615,1.425 10.022,1.777 8.134,0.529 8.499,0.625 2.918,0.766 l -6.379,0.162 -6.944,6.551 c -3.819,3.603 -8.487,7.286 -10.372,8.185 -1.885,0.899 -3.427,2.001 -3.427,2.449 0,1.656 3.792,0.726 10.219,-2.508 3.633,-1.828 9.907,-3.945 13.943,-4.704 7.433,-1.4 12.126,-3.834 16.509,-8.563 1.794,-1.935 3.031,-2.451 4.81,-2.004 1.318,0.331 2.659,0.177 2.979,-0.342 0.354,-0.573 2.44,-0.417 5.312,0.398 2.6,0.738 6.528,1.644 8.728,2.014 5.488,0.922 8.203,2.894 9.004,6.541 0.372,1.697 2.383,4.774 4.467,6.837 3.404,3.371 3.649,3.945 2.409,5.64 -0.759,1.039 -1.38,2.647 -1.38,3.575 0,0.927 -0.695,2.263 -1.546,2.969 -0.85,0.705 -1.314,1.885 -1.031,2.622 -0.13822,1.73131 -1.84092,1.39303 -2.423,2.795 -9.48949,-2.5269 -12.7239,3.512 -14.354,2.545 -2.029,0 -6.644,4.647 -6.657,6.702 -0.008,1.153 -1.532,2.458 -4.25,3.638 -5.947,2.581 -7.789,3.625 -14.264,8.081 -3.133,2.157 -8.136,4.725 -11.116,5.709 -2.981,0.983 -6.101,2.469 -6.934,3.302 -0.833,0.833 -3.308,1.998 -5.5,2.588 -5.634,1.517 -3.994,3.385 2.316,2.638 2.734,-0.324 5.486,-0.967 6.115,-1.43 0.629,-0.463 3.844,-0.957 7.144,-1.099 4.683,-0.202 6.549,-0.772 8.5,-2.596 2.052,-1.918 3.844,-2.407 10,-2.727 18.51059,0.45712 23.35708,-9.7471 32.628,-8.632 12.612,1.172 17.796,1.252 21.895,0.339 2.263,-0.504 3.439,-0.212 4.684,1.163 1.401,1.548 1.571,3.351 1.086,11.483 -0.569,9.54 -0.606,9.654 -3.32,10.196 -1.918,0.384 -3.064,1.467 -3.806,3.597 -0.848,2.432 -1.637,3.048 -3.903,3.048 -4.683,0 -16.309,13.118 -13.283,14.988 1.657,1.025 -3.184,4.695 -7.278,5.517 -5.765,1.159 -18.702,8.278 -18.704,10.293 0,0.386 3.411,0.614 7.58,0.506 25.991,-0.67 37.787,-2.945 42.891,-8.273 2.44,-2.547 3.445,-2.95 6.107,-2.451 2.799,0.525 3.518,0.162 5.923,-2.991 1.506,-1.974 3.311,-3.589 4.012,-3.589 0.701,0 1.505,-0.601 1.787,-1.337 0.731,-1.906 18.32,-9.599 25.103,-10.979 0.496,-0.101 1.974,1.369 3.285,3.266 1.711,2.476 2.213,4.228 1.78,6.201 -1,4.551 0.581,11.631 3.398,15.22 3.199,4.076 7.871,13.178 8.572,16.702 0.282,1.415 1.649,4.248 3.038,6.295 1.389,2.046 2.539,4.713 2.557,5.926 0.031,2.155 0.066,2.161 1.5,0.265 1.934,-2.557 1.913,-9.944 -0.032,-11.559 -1.717,-1.425 -2.009,-5.568 -0.459,-6.525 0.572,-0.354 0.767,-1.505 0.432,-2.559 -0.446,-1.406 -0.124,-1.92 1.21,-1.931 1.61323,-0.61497 -0.25679,-2.50504 0.92,-4.891 1.156,-2.318 1.456,-4.627 1.031,-7.932 -0.51,-3.954 2.169,-18.737 3.539,-19.532 2.615,-1.517 8.333,-3.63 9.826,-3.63 1.062,0 2.412,0.9 3.001,2 0.589,1.1 1.877,2 2.864,2 2.359,0 10.593,5.494 13.2,8.809 1.132,1.439 1.848,3.42 1.591,4.403 -0.257,0.984 -0.111,1.788 0.325,1.788 1.288,0 12.02,10.43 12.02,11.681 0,2.202 11.227,17.833 14.144,19.694 4.131,2.634 4.741,1.255 0.993,-2.247 -3.619,-3.381 -3.979,-4.53 -1.137,-3.628 2.774,0.881 2.507,-0.158 -1.096,-4.262 -2.46,-2.802 -2.977,-4.125 -2.513,-6.441 0.42,-2.1 -0.038,-3.753 -1.637,-5.915 -1.428,-1.932 -2.462,-5.208 -2.901,-9.192 -1.094,-9.921 -2.637,-15.797 -5.747,-21.889 -1.909,-3.74 -2.513,-5.839 -1.758,-6.104 0.753,-0.265 0.493,-1.148 -0.753,-2.551 -1.84,-2.073 -1.843,-2.214 -0.095,-4.146 0.995,-1.1 2.736,-2 3.867,-2 1.132,0 3.047,-1.238 4.256,-2.75 2.157,-2.699 2.383,-2.747 12.328,-2.573 7.019,0.122 12.038,0.794 16.34,2.188 8.357,2.707 17.709,6.913 17.709,7.963 0,0.47 2.137,2.024 4.75,3.454 2.613,1.43 5.533,3.526 6.49,4.659 1.825,2.159 7.067,2.784 9.645,1.151 1.092,-0.692 0.881,-1.145 -1,-2.145 -1.312,-0.698 -5.773,-4.684 -9.913,-8.858 -4.14,-4.174 -2.78101,-7.77078 -9.13669,-13.29408 C 312.59744,248.85014 305.353,246.016 301.507,242.107 297.661,238.198 294.173,235 293.757,235 293.341,235 293,232.975 293,230.5 c 0,-2.475 -0.436,-4.5 -0.969,-4.5 -0.532,0 -0.709,-0.675 -0.393,-1.5 0.365,-0.95 -0.013,-1.5 -1.031,-1.5 -1.16,0 -1.607,-0.943 -1.607,-3.393 0,-3.508 1.717,-5.037 4.471,-3.98 1.555,0.597 6.868,-2.955 5.887,-3.936 -0.316,-0.315 1.077,-1.264 3.094,-2.107 3.531,-1.475 3.817,-1.435 7.617,1.08 3.43,2.27 4.628,2.532 9.136,1.998 2.854,-0.338 5.519,-1.188 5.923,-1.888 2.517,-4.363 3.753,-5.273 5.62,-4.135 1.028,0.626 5.443,1.148 9.811,1.159 6.96,0.018 8.25,-0.269 10.441,-2.318 1.375,-1.287 4.75,-3.218 7.5,-4.292 2.75,-1.074 4.775,-2.343 4.5,-2.821 -0.275,-0.477 -4.55,-0.931 -9.5,-1.01 -15.404,-0.245 -24.17,-1.135 -27.345,-2.777 -1.681,-0.869 -4.669,-1.58 -6.641,-1.58 -1.971,0 -4.581,-0.619 -5.799,-1.375 -1.218,-0.756 -4.334,-1.883 -6.923,-2.504 -8.202,-1.966 -13.119,-9.848 -7.542,-12.09 3.20243,-4.0785 -0.52758,-2.34952 5.844,-7.017 3.352,-2.441 6.944,-5.519 7.983,-6.839 1.422,-1.808 2.492,-2.249 4.336,-1.786 1.983,0.498 2.508,0.202 2.767,-1.559 0.204,-1.388 1.404,-2.526 3.32,-3.149 2.489,-0.809 6.463,-3.555 10.8,-7.461 4.17,-3.757 10.959,-13.525 12.269,-17.654 0.884,-2.786 2.187,-6.416 2.895,-8.066 1.762,-4.103 2.799,-14.219 1.538,-14.999 -0.551,-0.34 -1.002,-0.018 -1.002,0.718 0,0.735 -1.8,4.856 -4,9.158 -2.2,4.302 -4,8.438 -4,9.191 0,0.773 -0.619,1.132 -1.423,0.823 -0.815,-0.313 -1.899,0.342 -2.535,1.531 -0.612,1.143 -1.702,2.078 -2.422,2.078 -0.721,0 -2.073,0.843 -3.006,1.874 -1.878,2.076 -6.923,3.162 -16.372,3.525 -4.432,0.17 -6.62,0.72 -7.5,1.888 -2.445,3.243 -12.742,6.196 -12.742,3.654 0,-0.582 -0.412,-0.805 -0.915,-0.494 -0.503,0.311 -1.087,0.048 -1.297,-0.584 -0.288,-0.864 -0.914,-0.866 -2.52,-0.006 -3.378,1.808 -6.391,1.332 -11.768,-1.857 -2.75,-1.631 -6.012,-2.974 -7.25,-2.983 -1.238,-0.009 -2.25,-0.132 -2.25,-0.274 0,-0.141 -0.401,-1.656 -0.892,-3.367 -0.736,-2.565 -0.373,-4.124 2.071,-8.898 1.63,-3.183 4.893,-12.355 7.25,-20.383 L 282.716,89.5 282.108,74.419 C 281.507,59.512 281.465,59.297 278.5,55.753 275.763,52.481 268.926,49 265.239,49 c -2.333,0 -0.85,2.202 2.814,4.179 3.251,1.754 3.319,1.893 1.197,2.457 -2.924,0.776 -2.905,2.364 0.027,2.364 3.928,0 6.723,2.726 6.723,6.557 0,1.894 -0.337,3.447 -0.75,3.452 -0.89,0.01 -3.596,9.178 -5.069,17.174 -1.21,6.564 -3.641,10.817 -6.185,10.817 -1.238,0 -1.973,1.065 -2.435,3.528 -0.364,1.94 -1.083,3.267 -1.599,2.949 -0.515,-0.319 -1.934,0.351 -3.154,1.487 -1.22,1.136 -2.688,1.905 -3.263,1.708 -0.575,-0.197 -2.62,0.435 -4.545,1.404 -1.925,0.969 -5.407,1.964 -7.738,2.21 -2.331,0.247 -4.806,0.907 -5.5,1.466 -2.794,2.253 -8.595,-2.276 -6.967,-5.438 0.514,-0.998 0.738,-2.489 0.497,-3.314 -0.96,-3.288 -2.64,-5.903 -3.464,-5.394 -0.479,0.296 -0.775,-0.732 -0.659,-2.284 C 225.408,91.149 222.475,86 220.429,86 211.75006,76.442368 216.21869,78.97854 213.13005,75.256323 211.88682,73.777129 208.896,73.263 208.564,71.75 208.228,70.214 207.288,69 206.435,69 c -1.158,0 -1.484,-1.028 -1.35,-4.25 0.271,-6.505 -5.887,-19.75 -9.183,-19.75 -0.393,0 -0.478,0.907 -0.188,2.015 0.396,1.514 0.144,1.868 -1.013,1.424 -0.996,-0.382 -1.385,-1.449 -1.101,-3.015 0.241,-1.333 -0.02,-2.424 -0.58,-2.424 -0.561,0 -1.034,0.563 -1.05,1.25 -0.054,2.207 -1.673,-1.524 -2.387,-5.5 C 188.871,34.784 187,33.564 187,37.066 m 5,108.363 c -14.246,3.956 -26.138,13.865 -32.66,27.213 -3.803,7.783 -4.52767,15.0686 -4.67654,20.11918 -0.17086,5.7964 0.86454,11.79682 4.73554,19.73882 6.53,13.399 18.79,23.439 33.627,27.539 5.741,1.586 20.185,1.592 25.907,0.01 20.246,-5.595 35.62,-22.389 37.91,-41.41 2.905,-24.125 -12.977,-46.785 -37.343,-53.282 -6.178,-1.647 -21.454,-1.607 -27.5,0.072"
         stroke="none"
         fill="#d45e37"
         fill-rule="evenodd"
         id="path958"
         sodipodi:nodetypes="cccccsccsscccccccscscccccccccccccccccccccscsccccccccssscsccccccscsccsccsccccccccssscccccccccsccccccccsccsccccscsccsccccsccscsscccccscccccccsssccsscccscccccccscccsscccsssssscsscccssccccscccssccccscccsccsssccscccssccsssscccscsccssccsscsssccccsccccscscccscccccscccccc"
         style="fill:#fcf2ed;fill-opacity:1" />
    </g>
  </g>
</svg>
