<?xml version="1.0" encoding="UTF-8" standalone="no"?>
<!-- Created with Inkscape (http://www.inkscape.org/) -->

<svg
   width="35.717495mm"
   height="44.323616mm"
   viewBox="0 0 35.717495 44.323616"
   version="1.1"
   id="svg1"
   xml:space="preserve"
   inkscape:version="1.3.1 (9b9bdc1480, 2023-11-25, custom)"
   sodipodi:docname="nadejnost.svg"
   xmlns:inkscape="http://www.inkscape.org/namespaces/inkscape"
   xmlns:sodipodi="http://sodipodi.sourceforge.net/DTD/sodipodi-0.dtd"
   xmlns="http://www.w3.org/2000/svg"
   xmlns:svg="http://www.w3.org/2000/svg"><sodipodi:namedview
     id="namedview1"
     pagecolor="#ffffff"
     bordercolor="#000000"
     borderopacity="0.25"
     inkscape:showpageshadow="2"
     inkscape:pageopacity="0.0"
     inkscape:pagecheckerboard="0"
     inkscape:deskcolor="#d1d1d1"
     inkscape:document-units="mm"
     inkscape:zoom="0.99999999"
     inkscape:cx="-123"
     inkscape:cy="147"
     inkscape:window-width="1850"
     inkscape:window-height="1016"
     inkscape:window-x="0"
     inkscape:window-y="0"
     inkscape:window-maximized="1"
     inkscape:current-layer="layer1"
     showguides="true"><sodipodi:guide
       position="2.5052299,251.0684"
       orientation="0,-1"
       id="guide3"
       inkscape:locked="false" /><sodipodi:guide
       position="-85.567943,238.26918"
       orientation="1,0"
       id="guide4"
       inkscape:locked="false" /><sodipodi:guide
       position="-81.400756,235.0611"
       orientation="1,0"
       id="guide5"
       inkscape:locked="false" /><sodipodi:guide
       position="-83.832542,222.8572"
       orientation="0,-1"
       id="guide6"
       inkscape:locked="false" /><sodipodi:guide
       position="-83.252839,220.046"
       orientation="0,-1"
       id="guide7"
       inkscape:locked="false" /><sodipodi:guide
       position="-82.889037,219.25225"
       orientation="0,-1"
       id="guide8"
       inkscape:locked="false" /><sodipodi:guide
       position="-83.517423,218.02855"
       orientation="0,-1"
       id="guide9"
       inkscape:locked="false" /></sodipodi:namedview><defs
     id="defs1" /><g
     inkscape:label="Layer 1"
     inkscape:groupmode="layer"
     id="layer1"
     transform="translate(-134.41664,-37.081414)"><path
       style="fill:#d35e35;fill-opacity:1"
       d="m 150.60529,80.795419 c -4.87837,-2.59386 -10.88398,-8.201229 -13.34546,-11.99847 -1.1634,-1.794733 -2.01436,-4.429429 -2.50687,-7.203887 -0.33634,-1.894712 -0.37921,-5.248324 -0.30568,-8.511578 0.12788,-5.675511 0.8763,-11.707101 1.73153,-12.804531 0.73896,-0.948224 5.94367,-2.211808 8.69066,-2.602546 2.74698,-0.390737 3.23736,-0.703166 3.16303,1.598303 -0.0802,2.484492 -0.39465,2.872959 -5.63624,3.796235 -2.1447,0.37779 -2.15461,0.523983 -2.3861,2.508223 -0.96384,10.127315 -0.47069,15.956073 1.02081,19.648628 0.72873,1.804139 4.23132,5.198057 8.21255,8.381157 3.87494,3.09812 3.18999,2.860346 5.49576,1.180236 5.17479,-3.77062 8.2052,-7.08677 9.28607,-9.90136 1.19463,-3.11082 1.407,-8.05393 0.65258,-17.117046 -0.28035,-3.36789 -0.28669,-3.960456 -1.48361,-4.391172 -0.54297,-0.195392 -2.13306,-0.689984 -3.79037,-1.099667 -1.55842,-0.385237 -4.03383,-0.770725 -4.40395,-0.574704 -0.45121,0.238967 -0.24302,1.089244 -0.25511,1.735917 -0.0186,0.996725 -0.0341,3.134094 -0.0393,4.330412 -0.003,0.643665 0.54862,0.921153 0.80975,1.000683 0.7402,0.225436 1.59941,1.048103 2.06774,1.887697 0.43239,0.77515 0.52027,1.84105 0.65869,3.03362 0.15754,1.35745 0.10628,1.8094 0.81795,2.37872 1.41759,0.40135 1.93366,1.949681 1.03257,3.36129 -0.23027,0.36073 -0.6363,0.625033 -1.24903,0.76861 -1.10835,0.259711 -1.23347,0.0236 -1.27068,3.43363 0.0137,1.49212 -0.44655,2.33504 -1.82428,2.31315 -2.07372,-0.0329 -2.07215,-1.14353 -2.07215,-2.91408 0,-0.67019 0.0665,-1.3304 -0.0324,-1.72258 -0.12108,-0.48002 -0.59848,-0.34738 -1.15818,-0.34738 -0.46228,0 -1.0954,-0.11014 -1.19101,0.24856 -0.0968,0.36325 -0.12025,0.75926 -0.10985,1.47123 0.0343,2.34659 -0.18455,3.25048 -2.08366,3.25253 -2.01395,0.002 -2.01922,-1.42123 -2.0411,-3.37853 -0.005,-1.01957 0.0219,-2.062296 -1.08214,-2.38109 -0.92619,-0.267434 -1.53624,-0.858541 -1.54544,-2.145081 -0.007,-0.96062 0.85624,-1.715334 1.65097,-2.171889 0.57626,-0.331049 0.66008,-1.002195 0.66008,-1.842835 0,-1.01911 0.0937,-2.789367 0.62163,-3.708667 0.4836,-0.842176 1.57555,-1.378643 2.19441,-1.575059 0.83935,-0.266398 0.64744,-1.06021 0.64744,-5.20141 0,-2.15162 -0.13077,-3.666384 0.0819,-4.637214 0.37116,-1.694465 2.12433,-1.956753 4.7657,-1.752893 5.57511,0.43028 9.71622,1.495232 11.7205,2.329532 1.74937,0.7282 2.6651,3.596387 3.22105,11.923096 0.47445,7.106146 -0.32766,13.759122 -1.58202,16.039506 -2.20306,4.005096 -5.44279,7.518215 -10.97993,11.490934 -3.75637,2.695073 -4.76517,2.97664 -6.8223,1.88285 z m 4.39385,-2.03533 c 5.12523,-2.97473 11.31319,-9.4317 12.561,-13.10704 0.58531,-1.72397 1.19277,-6.8121 1.1952,-10.01104 0.002,-3.2731 -0.61004,-9.320004 -1.22445,-12.087764 -0.35565,-1.60215 -0.56908,-2.03514 -1.25463,-2.54528 -0.92961,-0.69176 -5.59475,-1.815228 -7.9925,-2.091663 -4.87718,-0.562288 -6.32318,-0.641108 -6.62562,0.586052 -0.0358,0.145516 -0.0981,2.488696 -0.0567,4.598034 0.0554,2.815438 -0.19659,4.550149 0.28236,4.379241 l -0.0194,9.03e-4 1.00039,-0.0065 c 0.4952,-0.005 0.40088,-0.705399 0.40586,-4.317809 0.002,-1.61539 -0.20526,-2.997169 0.099,-3.600943 0.63353,-1.257149 7.05648,0.301817 10.68268,1.497037 1.09039,0.35939 1.30557,0.571121 1.57379,1.349211 0.51303,1.4883 1.02105,9.415441 1.01767,13.773591 -0.004,5.75475 -0.67171,8.11018 -3.32566,11.74015 -2.34623,3.1298 -5.46261,5.416251 -8.55703,7.71526 -0.93121,0.69556 -1.86483,1.26465 -2.07471,1.26465 -1.0558,0 -8.15943,-5.98675 -11.05628,-9.31794 -2.83317,-3.25797 -3.56445,-6.08144 -3.56445,-13.7624 0,-4.69635 0.66826,-11.378204 1.10123,-11.958328 0.47137,-0.631568 1.46064,-0.723582 3.09613,-1.092006 2.05166,-0.462173 3.38542,-0.600154 3.99815,-0.883856 0.57888,-0.268034 0.49165,-0.684265 0.50816,-1.022717 0.0501,-1.026242 0.30081,-1.438027 -2.89802,-0.740555 -1.83713,0.40057 -4.55819,1.068518 -5.77684,1.720718 -0.30737,0.1645 -0.92715,0.368863 -1.15299,1.413384 -0.3691,1.707021 -0.99249,7.296266 -0.99244,12.41551 8e-5,8.4088 1.15365,12.17848 5.1283,16.75849 1.90459,2.19467 7.33228,6.44766 10.12056,7.93021 1.32342,0.70367 1.64868,0.65261 3.80109,-0.59668 z m -5.04338,-14.84855 c 0.0129,-1.01745 -0.009,-2.42793 -0.004,-2.80331 0.005,-0.37538 -1.65389,-0.32849 -1.64607,0.0139 0.008,0.34238 0.0119,1.68589 0.0323,2.78653 0.0205,1.10064 1.60509,1.02033 1.61803,0.003 z m 6.4755,-0.009 c 0.0171,-1.09114 0.0502,-2.54408 0.0426,-2.7808 -0.008,-0.23672 -1.59341,-0.2433 -1.59468,-0.007 -0.003,0.5288 0.003,1.62078 -0.007,2.80291 -0.01,1.0846 1.54202,1.07602 1.55908,-0.0151 z m 2.15284,-5.06172 c 0.48894,-0.14262 0.58239,-0.93423 0.0772,-1.32637 -0.31644,-0.24561 -1.15064,-0.711601 -6.28675,-0.860651 -3.53342,-0.10254 -5.06716,0.183673 -5.97615,0.627745 -0.90898,0.444072 -0.60077,1.453895 0.1095,1.617805 0.67167,0.15501 0.92069,0.162749 6.38791,0.242699 2.82896,0.0414 5.30709,-0.02175 5.69009,-0.301748 z m -1.78335,-4.47991 c 0.0208,-1.87001 -0.19635,-3.59923 -2.26793,-4.18975 -0.60246,-0.17174 -2.81615,-0.433984 -4.14427,-0.0621 -1.78605,0.50007 -2.23783,0.97325 -2.21764,3.59162 l 0.0119,1.544 c 0,0 2.91454,-0.21199 4.33465,-0.18453 1.42011,0.0275 4.27118,0.38989 4.27118,0.38989 z"
       id="path3"
       sodipodi:nodetypes="csssszzscsssssssssssssssscssssssscssssssssssssscccscssscsccccssscssssssssssssssscczzzzzzssszssssszcssssczcsscs" /></g></svg>
